<svg width="100" height="100" viewBox="0 0 100 100" fill="none" xmlns="http://www.w3.org/2000/svg">
<rect width="100" height="100" rx="50" fill="#3C3C3C"/>
<path d="M15.34 59.98L6.4 53.23L17.32 45.85L18.28 46.78L10.45 52.06L18.73 58.3L15.34 59.98Z" fill="white"/>
<path d="M33.644 47.852L33.284 47.972L31.688 45.608H30.224V53.588L31.484 54.02L31.244 54.5H27.596V54.128L28.724 53.24V45.608H27.296L25.7 47.972L25.34 47.852V44.852L25.988 45.068H32.996L33.644 44.852V47.852ZM41.1343 54.5H38.8543V53.252L37.3303 54.524C37.1623 54.588 36.9423 54.62 36.6703 54.62C36.1263 54.62 35.6943 54.456 35.3743 54.128C35.0543 53.792 34.8943 53.34 34.8943 52.772V49.904L33.8263 49.28V48.908L35.8783 47.9H36.3343V52.172C36.3343 52.612 36.4023 52.92 36.5383 53.096C36.6743 53.272 36.9183 53.36 37.2703 53.36C37.5183 53.36 37.7623 53.316 38.0023 53.228C38.2423 53.132 38.5263 52.948 38.8543 52.676V49.904L37.7863 49.28V48.908L39.8383 47.9H40.2943V53.6L41.3743 54.02L41.1343 54.5ZM49.7169 54.5H42.5169V54.128L43.6449 53.24V45.968L42.3969 45.548L42.6369 45.068H46.2849V45.44L45.1449 46.328V53.96H48.2409L50.0049 51.356L50.3649 51.476V54.716L49.7169 54.5ZM55.659 48.008C56.187 48.008 56.659 48.148 57.075 48.428C57.499 48.7 57.827 49.072 58.059 49.544C58.299 50.016 58.419 50.536 58.419 51.104C58.419 51.72 58.231 52.3 57.855 52.844C57.479 53.38 57.007 53.812 56.439 54.14C55.879 54.46 55.335 54.62 54.807 54.62C54.279 54.62 53.803 54.484 53.379 54.212C52.963 53.932 52.635 53.556 52.395 53.084C52.163 52.612 52.047 52.092 52.047 51.524C52.047 50.908 52.235 50.332 52.611 49.796C52.987 49.252 53.455 48.82 54.015 48.5C54.583 48.172 55.131 48.008 55.659 48.008ZM54.963 49.016C54.059 49.016 53.607 49.66 53.607 50.948C53.607 51.708 53.771 52.344 54.099 52.856C54.427 53.36 54.895 53.612 55.503 53.612C56.407 53.612 56.859 52.964 56.859 51.668C56.859 50.916 56.695 50.288 56.367 49.784C56.039 49.272 55.571 49.016 54.963 49.016ZM65.1738 48.956C65.3978 49.276 65.5098 49.636 65.5098 50.036C65.5098 50.388 65.4098 50.736 65.2098 51.08C65.0098 51.416 64.7418 51.712 64.4058 51.968C64.0698 52.224 63.7018 52.416 63.3018 52.544C63.0858 52.76 62.9778 52.988 62.9778 53.228C62.9778 53.364 63.0818 53.492 63.2898 53.612C63.5058 53.724 63.8218 53.86 64.2378 54.02C64.8058 54.244 65.2418 54.448 65.5458 54.632C65.8578 54.824 66.0138 55.056 66.0138 55.328C66.0138 55.568 65.8578 55.876 65.5458 56.252C65.2418 56.628 64.8618 56.956 64.4058 57.236C63.9498 57.516 63.5098 57.656 63.0858 57.656C62.6378 57.656 62.1058 57.58 61.4898 57.428C60.8818 57.276 60.3738 57.124 59.9658 56.972V55.124H60.4218C60.8698 55.676 61.3258 56.096 61.7898 56.384C62.2538 56.672 62.7778 56.816 63.3618 56.816C63.5778 56.816 63.7738 56.772 63.9498 56.684C64.1338 56.596 64.2738 56.484 64.3698 56.348C64.4738 56.22 64.5258 56.096 64.5258 55.976C64.5258 55.76 64.4018 55.572 64.1538 55.412C63.9058 55.26 63.5178 55.072 62.9898 54.848C62.4858 54.64 62.1098 54.46 61.8618 54.308C61.6218 54.156 61.5018 53.98 61.5018 53.78C61.5018 53.588 61.6298 53.392 61.8858 53.192C62.1418 52.992 62.4458 52.816 62.7978 52.664C62.6698 52.688 62.5378 52.7 62.4018 52.7C61.9778 52.7 61.5898 52.608 61.2378 52.424C60.8858 52.232 60.6058 51.98 60.3978 51.668C60.1978 51.356 60.0978 51.016 60.0978 50.648C60.0978 50.208 60.2498 49.784 60.5538 49.376C60.8578 48.968 61.2498 48.64 61.7298 48.392C62.2178 48.136 62.7138 48.008 63.2178 48.008C63.7778 48.008 64.2698 48.168 64.6938 48.488H66.5778L66.5898 48.956H65.1738ZM63.0978 51.668C63.4578 51.668 63.7298 51.58 63.9138 51.404C64.1058 51.22 64.2018 50.952 64.2018 50.6C64.2018 50.12 64.0458 49.732 63.7338 49.436C63.4298 49.14 63.0258 48.992 62.5218 48.992C62.1698 48.992 61.8978 49.08 61.7058 49.256C61.5218 49.424 61.4298 49.684 61.4298 50.036C61.4298 50.524 61.5818 50.92 61.8858 51.224C62.1978 51.52 62.6018 51.668 63.0978 51.668ZM71.1512 48.008C71.6792 48.008 72.1512 48.148 72.5672 48.428C72.9912 48.7 73.3192 49.072 73.5512 49.544C73.7912 50.016 73.9112 50.536 73.9112 51.104C73.9112 51.72 73.7232 52.3 73.3472 52.844C72.9712 53.38 72.4992 53.812 71.9312 54.14C71.3712 54.46 70.8272 54.62 70.2992 54.62C69.7712 54.62 69.2952 54.484 68.8712 54.212C68.4552 53.932 68.1272 53.556 67.8872 53.084C67.6552 52.612 67.5392 52.092 67.5392 51.524C67.5392 50.908 67.7272 50.332 68.1032 49.796C68.4792 49.252 68.9472 48.82 69.5072 48.5C70.0752 48.172 70.6232 48.008 71.1512 48.008ZM70.4552 49.016C69.5512 49.016 69.0992 49.66 69.0992 50.948C69.0992 51.708 69.2632 52.344 69.5912 52.856C69.9192 53.36 70.3872 53.612 70.9952 53.612C71.8992 53.612 72.3512 52.964 72.3512 51.668C72.3512 50.916 72.1872 50.288 71.8592 49.784C71.5312 49.272 71.0632 49.016 70.4552 49.016Z" fill="white"/>
<path d="M81.81 60.61L80.85 59.68L88.68 54.4L80.4 48.16L83.79 46.48L92.73 53.23L81.81 60.61Z" fill="white"/>
</svg>
